<?xml version="1.0" encoding="UTF-8" standalone="no"?>
<svg
   xmlns:dc="http://purl.org/dc/elements/1.1/"
   xmlns:cc="http://creativecommons.org/ns#"
   xmlns:rdf="http://www.w3.org/1999/02/22-rdf-syntax-ns#"
   xmlns:svg="http://www.w3.org/2000/svg"
   xmlns="http://www.w3.org/2000/svg"
   xmlns:sodipodi="http://sodipodi.sourceforge.net/DTD/sodipodi-0.dtd"
   xmlns:inkscape="http://www.inkscape.org/namespaces/inkscape"
   id="Calque_1"
   data-name="Calque 1"
   viewBox="0 0 512.00001 512"
   version="1.1"
   inkscape:version="0.91 r13725"
   sodipodi:docname="logo-moocfactory.svg"
   width="512"
   height="512"
   inkscape:export-filename="/home/cri-ninja/Downloads/_wall/logo-moocfactory.png"
   inkscape:export-xdpi="90"
   inkscape:export-ydpi="90">
  <metadata
     id="metadata33">
    <rdf:RDF>
      <cc:Work
         rdf:about="">
        <dc:format>image/svg+xml</dc:format>
        <dc:type
           rdf:resource="http://purl.org/dc/dcmitype/StillImage" />
        <dc:title>logo-mooc-factory</dc:title>
      </cc:Work>
    </rdf:RDF>
  </metadata>
  <sodipodi:namedview
     pagecolor="#ffffff"
     bordercolor="#666666"
     borderopacity="1"
     objecttolerance="10"
     gridtolerance="10"
     guidetolerance="10"
     inkscape:pageopacity="0"
     inkscape:pageshadow="2"
     inkscape:window-width="1855"
     inkscape:window-height="1056"
     id="namedview31"
     showgrid="false"
     showguides="true"
     inkscape:zoom="1.4566147"
     inkscape:cx="368.49498"
     inkscape:cy="265.38914"
     inkscape:window-x="65"
     inkscape:window-y="24"
     inkscape:window-maximized="1"
     inkscape:current-layer="g4514"
     fit-margin-top="0"
     fit-margin-left="0"
     fit-margin-right="0"
     fit-margin-bottom="0" />
  <defs
     id="defs3">
    <style
       id="style5">.cls-1{fill:none;stroke:#73b6e0;stroke-miterlimit:10;stroke-width:0.25px;}.cls-2{font-size:206.13px;}.cls-2,.cls-4{fill:#25b6da;}.cls-2,.cls-4,.cls-5{font-family:Cyclone-Background, Cyclone;}.cls-3,.cls-5{fill:#405981;}.cls-3{letter-spacing:0em;}.cls-4{font-size:49.6px;}.cls-5{font-size:39.81px;}</style>
  </defs>
  <title
     id="title7">logo-mooc-factory</title>
  <g
     id="g4514"
     transform="translate(56.380005,40.705002)">
    <g
       id="g4264">
      <path
         sodipodi:nodetypes="cccccccc"
         inkscape:connector-curvature="0"
         id="path4623"
         d="M 7.4484973,84.565362 157.5214,-37.26411 434.54276,73.14086 426.78249,365.78008 146.42591,469.82649 4.2773114,339.16656 -35.182783,210.78007 Z"
         style="fill:#ffffff;fill-rule:evenodd;stroke:#1fb4dc;stroke-width:1.0;stroke-linecap:butt;stroke-linejoin:miter;stroke-miterlimit:4;stroke-dasharray:none;stroke-opacity:1" />
      <path
         sodipodi:nodetypes="ccccccscc"
         inkscape:connector-curvature="0"
         id="path4625"
         d="M -35.182783,210.78007 C -34.372638,206.72921 157.5214,-37.26411 157.5214,-37.26411 L 245.83006,19.174484 7.4484973,84.565362 4.2773114,339.16656 239.34867,412.51281 c 0,0 200.11243,-343.107683 195.25133,-339.056826 C 429.73902,77.506843 281.07256,222.52756 281.07256,222.52756 L 157.5214,-37.26411"
         style="fill:none;fill-rule:evenodd;stroke:#1fb4dc;stroke-width:1.0;stroke-linecap:butt;stroke-linejoin:miter;stroke-miterlimit:4;stroke-dasharray:none;stroke-opacity:1" />
      <path
         sodipodi:nodetypes="ccccccccccccc"
         inkscape:connector-curvature="0"
         id="path4627"
         d="M 7.4484973,84.565362 152.05278,213.41313 -35.182783,210.78007 146.17891,469.62991 281.07256,222.52756 152.05278,213.41313 239.34867,412.51281 426.78249,365.78008 376.26774,218.88178 434.6,73.455984 245.83006,19.174484 152.05278,213.41313 4.2773114,339.16656"
         style="fill:none;fill-rule:evenodd;stroke:#1fb4dc;stroke-width:1.0;stroke-linecap:butt;stroke-linejoin:miter;stroke-miterlimit:4;stroke-dasharray:none;stroke-opacity:1" />
      <path
         sodipodi:nodetypes="cccc"
         inkscape:connector-curvature="0"
         id="path4629"
         d="m 245.83006,19.174484 c 2.43043,3.240686 130.43768,199.707296 130.43768,199.707296 l -136.91907,193.63103 -92.35949,57.1171"
         style="fill:none;fill-rule:evenodd;stroke:#1fb4dc;stroke-width:1.0;stroke-linecap:butt;stroke-linejoin:miter;stroke-miterlimit:4;stroke-dasharray:none;stroke-opacity:1" />
      <path
         inkscape:connector-curvature="0"
         id="path4633"
         d="m 152.05278,213.41313 223.4047,5.87375"
         style="fill:none;fill-rule:evenodd;stroke:#1fb4dc;stroke-width:1.0;stroke-linecap:butt;stroke-linejoin:miter;stroke-miterlimit:4;stroke-dasharray:none;stroke-opacity:1"
         sodipodi:nodetypes="cc" />
      <path
         sodipodi:nodetypes="cc"
         inkscape:connector-curvature="0"
         id="path4635"
         d="M 281.47758,222.52756 426.78249,365.78008"
         style="fill:none;fill-rule:evenodd;stroke:#1fb4dc;stroke-width:1.0;stroke-linecap:butt;stroke-linejoin:miter;stroke-miterlimit:4;stroke-dasharray:none;stroke-opacity:1" />
    </g>
    <g
       id="g4225">
      <path
         sodipodi:nodetypes="cccccccccccccccc"
         inkscape:connector-curvature="0"
         id="path4461"
         d="m 14.386419,295.12872 24.755978,0 0,-129.36994 c 3.574592,-4.67455 12.168832,-10.64641 13.461768,0 l 0,129.36994 23.610539,0 0,-129.36994 c 3.454515,-6.0317 14.336672,-9.98154 14.264968,0 l 0,129.36994 25.098218,0 0,-139.18106 c -3.91816,-32.52801 -34.779288,-21.67031 -41.644842,-11.31277 -12.78278,-16.3006 -29.422813,-9.68542 -34.790651,0 l 0,-7.73906 -24.755978,0 z"
         style="fill:#1fb4dc;fill-opacity:1;fill-rule:evenodd;stroke:none;stroke-width:1px;stroke-linecap:butt;stroke-linejoin:miter;stroke-opacity:1" />
      <path
         sodipodi:nodetypes="sccsccssccsccs"
         inkscape:connector-curvature="0"
         id="path4463"
         d="m 156.87572,134.83855 c -27.2645,0 -30.34651,24.30255 -30.34651,24.30255 l 0,116.36468 c 0,0 5.1874,22.81726 30.34651,22.81726 25.1591,0 30.34651,-22.81726 30.34651,-22.81726 l 0,-116.36468 c 0,0 -3.08202,-24.30255 -30.34651,-24.30255 z m 0,24.29521 c 5.46259,0 6.08068,4.86894 6.08068,4.86894 l 0,105.45362 c 0,0 -1.03993,4.57152 -6.08068,4.57152 -5.04074,0 -6.07885,-4.57152 -6.07885,-4.57152 l 0,-105.45362 c 0,0 0.61627,-4.86894 6.07885,-4.86894 z"
         style="fill:#1fb4dc;fill-opacity:1;fill-rule:evenodd;stroke:none;stroke-width:1px;stroke-linecap:butt;stroke-linejoin:miter;stroke-opacity:1" />
      <path
         sodipodi:nodetypes="sccsccssccsccs"
         style="fill:#1fb4dc;fill-opacity:1;fill-rule:evenodd;stroke:none;stroke-width:1px;stroke-linecap:butt;stroke-linejoin:miter;stroke-opacity:1"
         d="m 228.51999,134.83855 c -27.26451,0 -30.34651,24.30255 -30.34651,24.30255 l 0,116.36468 c 0,0 5.1874,22.81726 30.34651,22.81726 25.15909,0 30.3465,-22.81726 30.3465,-22.81726 l 0,-116.36468 c 0,0 -3.08201,-24.30255 -30.3465,-24.30255 z m 0,24.29521 c 5.46258,0 6.08067,4.86894 6.08067,4.86894 l 0,105.45362 c 0,0 -1.03993,4.57152 -6.08067,4.57152 -5.04074,0 -6.07885,-4.57152 -6.07885,-4.57152 l 0,-105.45362 c 0,0 0.61627,-4.86894 6.07885,-4.86894 z"
         id="path4465"
         inkscape:connector-curvature="0" />
      <path
         sodipodi:nodetypes="sccsccccsccsccccs"
         inkscape:connector-curvature="0"
         id="path4467"
         d="m 300.16423,134.83855 c -27.2645,0 -30.3465,24.30255 -30.3465,24.30255 l 0,116.36468 c 0,0 5.18739,22.81726 30.3465,22.81726 25.1591,0 30.34651,-22.81726 30.34651,-22.81726 l 0,-36.27848 -24.26582,0 0,30.22902 c 0,0 -1.03994,4.57152 -6.08069,4.57152 -5.04074,0 -6.07885,-4.57152 -6.07885,-4.57152 l 0,-105.45362 c 0,0 0.61627,-4.86894 6.07885,-4.86894 5.46259,0 6.08069,4.86894 6.08069,4.86894 l 0,29.36427 24.26582,0 0,-34.22587 c 0,0 -3.08202,-24.30255 -30.34651,-24.30255 z"
         style="fill:#3e5981;fill-opacity:1;fill-rule:evenodd;stroke:none;stroke-width:1px;stroke-linecap:butt;stroke-linejoin:miter;stroke-opacity:1" />
    </g>
    <g
       id="g4245">
      <path
         sodipodi:nodetypes="sccsccssccsccs"
         inkscape:connector-curvature="0"
         id="path4471"
         d="m 379.01985,197.15089 c -6.54519,0 -7.28507,5.72916 -7.28507,5.72916 l 0,27.43219 c 0,0 1.2453,5.37902 7.28507,5.37902 6.03977,0 7.28508,-5.37902 7.28508,-5.37902 l 0,-27.43219 c 0,0 -0.73988,-5.72916 -7.28508,-5.72916 z m 0,5.72743 c 1.31137,0 1.45974,1.14782 1.45974,1.14782 l 0,24.85998 c 0,0 -0.24963,1.0777 -1.45974,1.0777 -1.21009,0 -1.4593,-1.0777 -1.4593,-1.0777 l 0,-24.85998 c 0,0 0.14794,-1.14782 1.4593,-1.14782 z"
         style="opacity:1;fill:#1fb4dc;fill-opacity:1;fill-rule:evenodd;stroke:none;stroke-width:1px;stroke-linecap:butt;stroke-linejoin:miter;stroke-opacity:1" />
      <path
         sodipodi:nodetypes="sccsccccsccsccccs"
         style="opacity:1;fill:#1fb4dc;fill-opacity:1;fill-rule:evenodd;stroke:none;stroke-width:1px;stroke-linecap:butt;stroke-linejoin:miter;stroke-opacity:1"
         d="m 347.38817,197.15089 c -6.54522,0 -7.28508,5.72916 -7.28508,5.72916 l 0,27.43219 c 0,0 1.2453,5.37902 7.28508,5.37902 6.03978,0 7.28506,-5.37902 7.28506,-5.37902 l 0,-8.55239 -5.82532,0 0,7.12627 c 0,0 -0.24965,1.0777 -1.45974,1.0777 -1.21011,0 -1.45932,-1.0777 -1.45932,-1.0777 l 0,-24.85998 c 0,0 0.14794,-1.14782 1.45932,-1.14782 1.31136,0 1.45974,1.14782 1.45974,1.14782 l 0,6.92244 5.82532,0 0,-8.06853 c 0,0 -0.73987,-5.72916 -7.28506,-5.72916 z"
         id="path4473"
         inkscape:connector-curvature="0" />
      <path
         sodipodi:nodetypes="ccccccccccc"
         inkscape:connector-curvature="0"
         id="path4475"
         d="m 309.29056,197.38029 0,38.31097 5.96458,0 0.22941,-16.51729 4.35873,0 0,-6.19401 -4.35873,0 0,-10.09391 5.73517,0 0,-5.73516 z"
         style="opacity:1;fill:#1fb4dc;fill-opacity:1;fill-rule:evenodd;stroke:none;stroke-width:1px;stroke-linecap:butt;stroke-linejoin:miter;stroke-opacity:1" />
      <path
         sodipodi:nodetypes="ccccczcccsccccscssccs"
         inkscape:connector-curvature="0"
         id="path4477"
         d="m 330.23763,197.15089 c -6.66781,0 -7.06724,6.60359 -7.06724,6.60359 l 0,6.31079 5.1296,0 0,-5.92054 c 0,0 0.10483,-1.3876 1.78977,-1.3876 1.68495,0 1.78978,1.3876 1.78978,1.3876 l 0,7.388 c -3.39161,1.41141 -6.04385,3.5486 -8.05534,7.63187 -1.62769,4.52309 -0.99369,10.25871 -0.009,12.9217 1.63228,4.41485 8.01478,4.75555 9.08015,1.12743 l 0,1.94834 4.50148,0 0,-31.40759 c 0,0 -0.49129,-6.60359 -7.15909,-6.60359 z m 1.67195,30.70305 c 0,2.02681 -1.41036,2.7746 -2.86392,2.02563 -1.17753,-0.60675 -1.20787,-7.34418 -0.12313,-8.82286 1.0271,-1.57987 2.07947,-3.00942 2.98705,-3.00942 z"
         style="opacity:1;fill:#1fb4dc;fill-opacity:1;fill-rule:evenodd;stroke:none;stroke-width:1px;stroke-linecap:butt;stroke-linejoin:miter;stroke-opacity:1" />
      <path
         sodipodi:nodetypes="ccccccccc"
         inkscape:connector-curvature="0"
         id="path4479"
         d="m 355.50474,197.15089 0,6.04554 4.55317,0 0,32.49483 5.46379,0 0,-32.49483 4.55318,0 0,-6.04554 z"
         style="opacity:1;fill:#1fb4dc;fill-opacity:1;fill-rule:evenodd;stroke:none;stroke-width:1px;stroke-linecap:butt;stroke-linejoin:miter;stroke-opacity:1" />
      <path
         sodipodi:nodetypes="ccczczccccccccccc"
         inkscape:connector-curvature="0"
         id="path4481"
         d="m 397.32209,219.59134 c 0.65156,1.74719 -0.10768,16.09992 1.35208,16.09992 l 4.54076,0 c 0,0 -0.50452,-3.81009 -0.50452,-11.48585 0,-7.67576 -2.05562,-7.87886 -2.05562,-7.87886 0,0 2.18174,-0.0161 2.18174,-9.40472 0,-9.3886 -4.45213,-9.70289 -4.45213,-9.70289 0,0 -4.10927,-0.15313 -9.34118,0 l 0,38.47232 5.43361,0 0.10333,-15.97278 z m -2.74193,-16.35921 0,11.33661 2.86806,-0.12716 0,-11.33659 c -1.21244,-1.0423 -1.99194,-0.86477 -2.86806,0.12714 z"
         style="opacity:1;fill:#1fb4dc;fill-opacity:1;fill-rule:evenodd;stroke:none;stroke-width:1px;stroke-linecap:butt;stroke-linejoin:miter;stroke-opacity:1" />
      <path
         sodipodi:nodetypes="ccsccsccccsccccsccc"
         inkscape:connector-curvature="0"
         id="path4483"
         d="m 405.69163,197.15089 0,17.67932 c 0,0 1.24529,5.46987 7.28507,5.46986 0.52569,0 1.00382,-0.0537 1.4592,-0.12932 l 0,8.60076 c 0,0 -0.24909,1.0947 -1.4592,1.0947 -1.21009,0 -1.45921,-1.0947 -1.45921,-1.0947 l 0,-5.12027 -5.82586,0 0,6.57016 c 0,0 1.24529,5.46986 7.28507,5.46986 6.03977,0 7.28507,-5.46986 7.28507,-5.46986 l 0,-32.94483 -5.82587,0 0,16.10194 c 0,0 -0.24911,1.09652 -1.4592,1.09652 -1.21011,0 -1.45921,-1.09652 -1.45921,-1.09652 l 0,-16.22762 z"
         style="opacity:1;fill:#1fb4dc;fill-opacity:1;fill-rule:evenodd;stroke:none;stroke-width:1px;stroke-linecap:butt;stroke-linejoin:miter;stroke-opacity:1" />
    </g>
    <g
       id="g4254">
      <path
         style="fill:#3e5981;fill-opacity:1;fill-rule:evenodd;stroke:none;stroke-width:1px;stroke-linecap:butt;stroke-linejoin:miter;stroke-opacity:1"
         d="m 402.1672,238.62383 0,30.07997 5.0985,0 0,-30.07997 z"
         id="path4489"
         inkscape:connector-curvature="0"
         sodipodi:nodetypes="ccccc" />
      <path
         sodipodi:nodetypes="ccccc"
         inkscape:connector-curvature="0"
         id="path4491"
         d="m 346.92573,238.62383 0,30.07997 5.0985,0 0,-30.07997 z"
         style="fill:#3e5981;fill-opacity:1;fill-rule:evenodd;stroke:none;stroke-width:1px;stroke-linecap:butt;stroke-linejoin:miter;stroke-opacity:1" />
      <path
         style="opacity:1;fill:#3e5981;fill-opacity:1;fill-rule:evenodd;stroke:none;stroke-width:1px;stroke-linecap:butt;stroke-linejoin:miter;stroke-opacity:1"
         d="m 370.69204,256.21211 c 0,0 2.71449,0.0648 2.71449,-8.7306 0,-8.79538 -3.13402,-8.7306 -3.13402,-8.7306 0,0 -3.54798,-0.11952 -7.63138,0 l 0,30.02685 4.24083,0 0.0806,-12.46643 z m -3.72943,-12.76804 0,8.848 2.23845,-0.0993 0,-8.84798 c -0.94628,-0.81349 -1.55467,-0.67493 -2.23845,0.0992 z"
         id="path4493"
         inkscape:connector-curvature="0"
         sodipodi:nodetypes="czcccccccccccc" />
      <path
         style="opacity:1;fill:#3e5981;fill-opacity:1;fill-rule:evenodd;stroke:none;stroke-width:1px;stroke-linecap:butt;stroke-linejoin:miter;stroke-opacity:1"
         d="m 375.80313,243.7778 0,4.92545 4.00354,0 0,-4.62085 c 0,0 0.0818,-1.083 1.39688,-1.083 1.31507,0 1.39689,1.083 1.39689,1.083 l 0,5.76618 c -2.64709,1.10157 -4.7171,2.7696 -6.28703,5.95651 -1.27038,3.53018 -0.77555,8.00671 -0.008,10.08511 1.27396,3.44571 6.25537,3.71162 7.08686,0.87994 l 0,1.52065 3.51333,0 0,-24.51299 c 0,0 -0.9581,-5.15396 -5.66565,-5.15396 -4.70754,0 -5.43682,5.15396 -5.43682,5.15396 z m 6.82074,18.80914 c 0,1.58188 -1.10075,2.16552 -2.23522,1.58096 -0.91904,-0.47355 -0.94272,-5.73198 -0.0961,-6.88606 0.80164,-1.23306 1.62299,-2.34879 2.33133,-2.34879 z"
         id="path4495"
         inkscape:connector-curvature="0"
         sodipodi:nodetypes="cccczcccscccczcssccs" />
      <path
         sodipodi:nodetypes="ccczczcccccccccccc"
         inkscape:connector-curvature="0"
         id="path4497"
         d="m 395.71398,256.13816 c 0.50853,1.36364 -0.084,12.56565 1.05527,12.56565 l 3.54397,0 c 0,0 -0.39377,-2.9737 -0.39377,-8.96446 0,-5.99077 -1.60437,-6.1493 -1.60437,-6.1493 0,0 1.70281,-0.0125 1.70281,-7.34018 0,-7.32761 -3.4748,-7.57291 -3.4748,-7.57291 0,0 -3.2072,-0.11952 -7.2906,0 l 0,30.02685 4.24083,0 0.0806,-12.46643 z m -2.14001,-12.76804 0,8.848 2.23845,-0.0993 0,-8.84798 c -0.94628,-0.81349 -1.55466,-0.67493 -2.23845,0.0992 z"
         style="opacity:1;fill:#3e5981;fill-opacity:1;fill-rule:evenodd;stroke:none;stroke-width:1px;stroke-linecap:butt;stroke-linejoin:miter;stroke-opacity:1" />
      <path
         style="opacity:1;fill:#3e5981;fill-opacity:1;fill-rule:evenodd;stroke:none;stroke-width:1px;stroke-linecap:butt;stroke-linejoin:miter;stroke-opacity:1"
         d="m 340.41543,256.13816 c 0.50853,1.36364 -0.084,12.56565 1.05527,12.56565 l 3.54397,0 c 0,0 -0.39377,-2.9737 -0.39377,-8.96447 0,-5.99076 -1.60437,-6.14929 -1.60437,-6.14929 0,0 1.70281,-0.0125 1.70281,-7.34018 0,-7.32761 -3.4748,-7.57291 -3.4748,-7.57291 0,0 -3.2072,-0.11952 -7.2906,0 l 0,30.02685 4.24083,0 0.0806,-12.46643 z m -2.14001,-12.76804 0,8.848 2.23846,-0.0993 0,-8.84798 c -0.94629,-0.81349 -1.55468,-0.67493 -2.23846,0.0992 z"
         id="path4499"
         inkscape:connector-curvature="0"
         sodipodi:nodetypes="ccczczcccccccccccc" />
      <path
         sodipodi:nodetypes="ccsccccscczccsccccscczc"
         style="opacity:1;fill:#3e5981;fill-opacity:1;fill-rule:evenodd;stroke:none;stroke-width:1px;stroke-linecap:butt;stroke-linejoin:miter;stroke-opacity:1"
         d="m 421.74741,261.00594 0,3.49965 c 0,0 -0.97193,4.19821 -5.68587,4.19821 -4.71392,0 -5.68582,-4.19821 -5.68582,-4.19821 l 0,-6.67497 4.54654,0 0,5.56191 c 0,0 0.19484,0.84113 1.13928,0.84113 0.94448,0 1.13897,-0.84113 1.13897,-0.84113 l 0,-1.49209 -3.41239,-7.33741 -3.4124,-7.33739 0,-4.1303 c 0,0 0.57745,-4.4715 5.68586,-4.4715 5.10838,0 5.68583,4.4715 5.68583,4.4715 l 0,6.29732 -4.54654,0 0,-5.40282 c 0,0 -0.1158,-0.89586 -1.13929,-0.89586 -1.02351,0 -1.13897,0.89586 -1.13897,0.89586 l 0,2.12275 3.4124,7.44668 z"
         id="path4501"
         inkscape:connector-curvature="0" />
      <path
         style="fill:#3e5981;fill-opacity:1;fill-rule:evenodd;stroke:none;stroke-width:1px;stroke-linecap:butt;stroke-linejoin:miter;stroke-opacity:1"
         d="m 354.14997,251.42233 0,4.48298 6.34713,0 0,-4.48298 z"
         id="path4503"
         inkscape:connector-curvature="0"
         sodipodi:nodetypes="ccccc" />
    </g>
  </g>
</svg>
